<svg xmlns="http://www.w3.org/2000/svg" fill="none" viewBox="0 0 36 36" height="36" width="36">
<path fill="#D99E82" d="M18 3.14301C8.059 3.14301 0 10.051 0 18.571C0 19.637 0.126 20.678 0.367 21.683C2.146 24.744 3.377 22.812 9 20C14.727 17.136 9 24 7 28C6.385 29.23 6.718 30.271 7.56 31.124C10.506 32.928 14.104 34 18 34C27.941 34 36 27.093 36 18.571C36 10.051 27.941 3.14301 18 3.14301ZM20.849 27.59C20.454 28.936 18.389 29.514 16.236 28.881C14.083 28.249 12.658 26.647 13.053 25.3C13.448 23.954 15.513 23.376 17.666 24.01C19.819 24.641 21.244 26.243 20.849 27.59Z"/>
<path fill="#5C913B" d="M10 14C11.6569 14 13 12.6569 13 11C13 9.34315 11.6569 8 10 8C8.34315 8 7 9.34315 7 11C7 12.6569 8.34315 14 10 14Z"/>
<path fill="#226699" d="M20 12C21.6569 12 23 10.6569 23 9C23 7.34315 21.6569 6 20 6C18.3431 6 17 7.34315 17 9C17 10.6569 18.3431 12 20 12Z"/>
<path fill="#DD2E44" d="M29 18C30.6569 18 32 16.6569 32 15C32 13.3431 30.6569 12 29 12C27.3431 12 26 13.3431 26 15C26 16.6569 27.3431 18 29 18Z"/>
<path fill="#FFCC4D" d="M28 27C29.6569 27 31 25.6569 31 24C31 22.3431 29.6569 21 28 21C26.3431 21 25 22.3431 25 24C25 25.6569 26.3431 27 28 27Z"/>
</svg>
