<svg xmlns="http://www.w3.org/2000/svg" fill="none" viewBox="0 0 36 36" height="36" width="36">
<path fill="#662113" d="M4 11V23.375C4 25.417 5.093 25.859 5.093 25.859L16.667 34.958C18.489 36.39 18 33.375 18 33.375V22L4 11Z"/>
<path fill="#C1694F" d="M32.0001 11V23.375C32.0001 25.417 30.9371 25.859 30.9371 25.859C30.9371 25.859 21.1701 33.526 19.3491 34.958C17.5261 36.39 18.0001 33.375 18.0001 33.375V22L32.0001 11Z"/>
<path fill="#D99E82" d="M19.289 0.49998C18.536 -0.11002 17.301 -0.11002 16.547 0.49998L4.56501 10.029C3.81101 10.639 3.81101 11.636 4.56501 12.245L16.588 21.891C17.342 22.5 18.577 22.5 19.331 21.891L31.435 12.161C32.189 11.552 32.189 10.555 31.435 9.94498L19.289 0.49998Z"/>
<path fill="#D99E82" d="M18 35.75C17.448 35.75 17 35.268 17 34.672V21.745C17 21.149 17.448 20.667 18 20.667C18.553 20.667 19 21.149 19 21.745V34.672C19 35.268 18.553 35.75 18 35.75Z"/>
<path fill="#99AAB5" d="M28.0001 18.836C28.0001 19.94 28.1041 20.482 27.0001 21.278L24.5311 23.156C23.4271 23.953 23.0001 23.269 23.0001 22.164V19.203C23.0001 19.01 22.9741 18.803 22.7221 18.595C20.1441 16.47 10.1341 8.51899 8.31006 7.05099L12.9351 3.37299C14.2011 4.29899 23.6881 11.625 27.6571 14.75C27.8541 14.906 28.0001 15.078 28.0001 15.266V18.836Z"/>
<path fill="#CCD6DD" d="M27.6561 14.75C23.6881 11.625 14.2011 4.29899 12.9351 3.37299L11.2141 4.74099L8.31006 7.05099C10.1351 8.51899 20.1441 16.47 22.7221 18.595C22.8731 18.72 22.9391 18.845 22.9701 18.966L27.9031 15C27.8431 14.913 27.7571 14.829 27.6561 14.75Z"/>
<path fill="#CCD6DD" d="M28.0001 18.836V15.266C28.0001 15.078 27.8541 14.907 27.6561 14.75C23.6881 11.625 14.2011 4.29899 12.9351 3.37299L10.8621 5.02199C14.2551 7.69099 23.3431 14.703 25.7221 16.595C25.9781 16.799 26.0001 17.01 26.0001 17.203V22.039L27.0001 21.278C28.1041 20.481 28.0001 19.94 28.0001 18.836Z"/>
<path fill="#E1E8ED" d="M27.6561 14.75C23.6881 11.625 14.2011 4.29899 12.9351 3.37299L10.8621 5.02199C14.2551 7.69099 23.3431 14.703 25.7221 16.595C25.7591 16.624 25.7821 16.654 25.8091 16.683L27.9031 15C27.8431 14.913 27.7571 14.829 27.6561 14.75Z"/>
</svg>
