<svg xmlns="http://www.w3.org/2000/svg" fill="none" viewBox="0 0 36 36" height="36" width="36">
<path fill="#CCD6DC" d="M35.8581 17.376L0.0791016 17.053V28.874C0.0901016 29.958 1.0881 30.994 2.5991 31.902L4.9951 33.035C5.7271 33.313 6.5261 33.569 7.3881 33.801L10.9731 34.563C11.7641 34.69 12.5881 34.795 13.4331 34.883L22.7611 34.971C23.6291 34.896 24.4751 34.804 25.2851 34.686L28.8551 33.979C29.7121 33.76 30.5071 33.516 31.2331 33.249L33.6071 32.151C35.1141 31.258 35.8691 30.228 35.8581 29.138V17.376Z"/>
<path fill="#66757F" d="M22.8849 30.848C22.8419 26.488 20.6949 25.378 18.0599 25.355C15.4259 25.331 13.3009 26.402 13.3439 30.762C13.3599 32.368 13.3899 33.722 13.4329 34.882C14.9369 35.038 16.5119 35.136 18.1449 35.151C19.7449 35.165 21.2859 35.097 22.7609 34.971C22.8579 33.968 22.9029 32.63 22.8849 30.848ZM10.9169 28.89L10.9179 28.997L10.9209 29.361L10.9239 29.632L10.9249 29.697C10.9259 29.749 10.9249 29.741 10.9249 29.697L10.9239 29.632L10.9209 29.361L10.9179 28.997L10.9169 28.89L10.9159 28.768C10.8939 26.588 7.30592 25.465 7.32692 27.646V27.683L7.32892 27.887L7.33092 28.045L7.33592 28.515L7.33692 28.582L7.38792 33.8C8.49392 34.097 9.68992 34.356 10.9729 34.562L10.9169 28.809V28.89ZM28.7949 27.898L28.7999 28.404V28.431L28.8029 28.701C28.8039 28.819 28.8039 28.851 28.8029 28.701L28.7999 28.431V28.404L28.7949 27.898L28.7939 27.84C28.7719 25.66 25.2049 26.717 25.2269 28.897V28.933L25.2839 34.686C26.5629 34.5 27.7539 34.26 28.8539 33.979L28.7939 27.879L28.7949 27.898ZM4.93092 26.534C4.90892 24.354 2.51392 23.242 2.53492 25.422V25.463L2.59792 31.902C3.27392 32.308 4.08092 32.687 4.99392 33.035L4.94192 27.714C4.94492 27.922 4.94792 28.296 4.93092 26.534ZM31.1679 26.771L31.1799 27.908V27.861V27.908L31.2329 33.248C32.1389 32.914 32.9379 32.547 33.6069 32.15L33.5429 25.702C33.5219 23.522 31.1469 24.591 31.1679 26.771ZM2.97192 5.22498C2.69592 5.22498 2.47192 5.44898 2.47192 5.72498V18.095C2.47192 18.371 2.69592 18.595 2.97192 18.595C3.24792 18.595 3.47192 18.371 3.47192 18.095V5.72498C3.47192 5.44798 3.24892 5.22498 2.97192 5.22498Z"/>
<path fill="#DD2F45" d="M3.20708 5.93597C4.68508 6.20497 6.88908 7.03797 7.45308 7.35997C8.01708 7.68197 7.66808 7.84397 7.13108 8.08497C6.59308 8.32697 3.69008 9.10597 3.26108 9.18697C2.83008 9.26897 3.20708 5.93597 3.20708 5.93597Z"/>
<path fill="#66757F" d="M11.969 2.97601C11.693 2.97601 11.469 3.20001 11.469 3.47601V15.846C11.469 16.122 11.693 16.346 11.969 16.346C12.245 16.346 12.469 16.122 12.469 15.846V3.47601C12.469 3.19901 12.245 2.97601 11.969 2.97601Z"/>
<path fill="#226798" d="M12.2029 3.68701C13.6809 3.95601 15.8849 4.78901 16.4499 5.11201C17.0139 5.43401 16.6649 5.59601 16.1279 5.83701C15.5899 6.07901 12.6879 6.85801 12.2579 6.93901C11.8259 7.02001 12.2029 3.68701 12.2029 3.68701Z"/>
<path fill="#66757F" d="M21.3391 2.97601C21.0631 2.97601 20.8391 3.20001 20.8391 3.47601V15.846C20.8391 16.122 21.0631 16.346 21.3391 16.346C21.6151 16.346 21.8391 16.122 21.8391 15.846V3.47601C21.8391 3.19901 21.6151 2.97601 21.3391 2.97601Z"/>
<path fill="#DD2F45" d="M21.574 3.68701C23.052 3.95601 25.255 4.78901 25.82 5.11201C26.384 5.43401 26.035 5.59601 25.498 5.83701C24.961 6.07901 22.058 6.85801 21.627 6.93901C21.196 7.02001 21.574 3.68701 21.574 3.68701Z"/>
<path fill="#66757F" d="M30.335 5.22498C30.059 5.22498 29.835 5.44898 29.835 5.72498V18.095C29.835 18.371 30.059 18.595 30.335 18.595C30.611 18.595 30.835 18.371 30.835 18.095V5.72498C30.835 5.44798 30.611 5.22498 30.335 5.22498Z"/>
<path fill="#226798" d="M30.5699 5.93597C32.0479 6.20497 34.2509 7.03797 34.8159 7.36097C35.3799 7.68297 35.0309 7.84497 34.4939 8.08597C33.9569 8.32797 31.0539 9.10697 30.6229 9.18797C30.1929 9.26897 30.5699 5.93597 30.5699 5.93597Z"/>
<path fill="#E9EFF3" d="M35.8579 17.444C35.8909 20.756 27.9089 23.368 18.0289 23.279C8.14793 23.19 0.111936 20.431 0.0799359 17.121C0.0469359 13.809 8.02993 11.197 17.9099 11.286C27.7889 11.376 35.8249 14.133 35.8579 17.444Z"/>
<path fill="#7450A0" d="M33.2571 18.209C33.2861 21.204 26.4691 23.57 18.0311 23.495C9.59111 23.418 2.72611 20.928 2.69711 17.933C2.66811 14.939 9.48411 12.573 17.9241 12.649C26.3611 12.726 33.2281 15.215 33.2571 18.209Z"/>
<path fill="#E9EFF3" d="M26.766 19.378L32.596 15.439L30.796 14.333C30.796 14.333 27.166 17.727 25.974 18.881C25.098 18.426 23.901 18.044 22.488 17.777L24.927 12.474L22.464 12.18L21.37 17.599C20.311 17.454 19.168 17.366 17.969 17.355C17.041 17.347 16.146 17.386 15.298 17.461L14.115 12.104L11.658 12.355L14.149 17.59C12.509 17.816 11.112 18.194 10.113 18.675C8.84204 17.448 5.26604 14.102 5.26604 14.102L3.48804 15.176L9.30204 19.156C8.76104 19.553 8.45504 19.996 8.45904 20.467C8.47704 22.233 12.762 23.704 18.032 23.752C23.3 23.8 27.559 22.406 27.542 20.639C27.538 20.194 27.261 19.767 26.766 19.378Z"/>
<path fill="#5C903F" d="M26.4271 20.862C26.4401 22.183 22.6951 23.219 18.0641 23.177C13.4331 23.135 9.66806 22.031 9.65506 20.71C9.64206 19.39 13.3861 18.354 18.0171 18.396C22.6471 18.437 26.4131 19.542 26.4271 20.862Z"/>
</svg>
