<svg xmlns="http://www.w3.org/2000/svg" fill="none" viewBox="0 0 36 36" height="36" width="36">
<path fill="#929497" d="M18 33.949C27.9411 33.949 36 29.4719 36 23.949C36 18.4262 27.9411 13.949 18 13.949C8.05887 13.949 0 18.4262 0 23.949C0 29.4719 8.05887 33.949 18 33.949Z"/>
<path fill="#CCD6DC" d="M18 32.199C27.9411 32.199 36 27.7219 36 22.199C36 16.6762 27.9411 12.199 18 12.199C8.05887 12.199 0 16.6762 0 22.199C0 27.7219 8.05887 32.199 18 32.199Z"/>
<path fill="#F19020" d="M32 20.393C32 24.688 25.732 28.171 18 28.171C10.268 28.171 4 24.688 4 20.393C4 16.098 10.268 12.615 18 12.615C25.732 12.615 32 16.098 32 20.393Z"/>
<path fill="#FAAA35" d="M32 18.239C32 22.534 25.732 26.017 18 26.017C10.268 26.017 4 22.534 4 18.239C4 13.944 10.268 10.461 18 10.461C25.732 10.461 32 13.944 32 18.239Z"/>
<path fill="#F19020" d="M32 16.085C32 20.38 25.732 23.863 18 23.863C10.268 23.863 4 20.381 4 16.085C4 11.789 10.268 8.30701 18 8.30701C25.732 8.30701 32 11.79 32 16.085Z"/>
<path fill="#FAAA35" d="M32 13.932C32 18.227 25.732 21.71 18 21.71C10.268 21.71 4 18.227 4 13.932C4 9.63701 10.268 6.15401 18 6.15401C25.732 6.15401 32 9.63601 32 13.932Z"/>
<path fill="#F19020" d="M32 11.778C32 16.073 25.732 19.556 18 19.556C10.268 19.556 4 16.073 4 11.778C4 7.483 10.268 4 18 4C25.732 4 32 7.483 32 11.778Z"/>
<path fill="#E18524" d="M28.316 23.498C27.59 23.937 26.774 24.33 25.885 24.668C26.004 25.225 26.353 25.514 26.755 25.514C27.356 25.514 28.075 24.867 28.316 23.498Z"/>
<path fill="#E5922E" d="M28.401 21.292C27.636 21.763 26.769 22.182 25.818 22.539C25.831 23.247 25.842 23.801 25.842 24.23C25.842 24.391 25.857 24.537 25.885 24.668C26.774 24.331 27.59 23.938 28.316 23.498C28.369 23.194 28.399 22.855 28.399 22.48L28.401 21.292Z"/>
<path fill="#E18524" d="M28.41 19.132C27.634 19.611 26.752 20.037 25.785 20.397C25.794 21.231 25.806 21.94 25.817 22.539C26.767 22.183 27.635 21.764 28.4 21.292C28.403 20.463 28.406 19.739 28.41 19.132Z"/>
<path fill="#E5922E" d="M28.433 16.955L25.775 18.239C25.775 19.038 25.78 19.755 25.786 20.397C26.753 20.037 27.635 19.611 28.411 19.132C28.42 17.731 28.433 16.955 28.433 16.955Z"/>
<path fill="#D17A28" d="M15.341 6.35899C11.37 5.14799 9.69602 5.75899 9.95702 8.88299C10.024 9.69099 8.91402 11.037 7.80302 11.811C5.22002 13.611 6.33002 16.62 10.765 14.402C12.986 13.292 16.225 13.367 20.154 14.57C23.452 15.58 25.505 16.757 25.774 18.238C26.649 17.942 27.716 17.479 28.433 16.954C28.162 16.34 26.952 14.536 25.034 13.695C21.406 12.104 24.91 9.81099 27.625 9.25299C30.082 8.74799 27.659 6.89699 23.923 6.96499C20.188 7.03299 21.127 8.12499 15.341 6.35899Z"/>
<path fill="#FAAA35" d="M22.122 8.571C22.122 8.571 22.229 9.818 21.807 10.058L18.761 11.794C18.34 12.034 17.659 12.034 17.238 11.794L14.192 10.058C13.771 9.818 13.876 8.547 13.876 8.547L22.122 8.571Z"/>
<path fill="#FFD882" d="M21.807 8.11301C22.028 8.23901 22.133 8.40601 22.122 8.57101C22.112 8.72001 22.007 8.86701 21.807 8.98101L18.761 10.717C18.34 10.957 17.659 10.957 17.238 10.717L14.192 8.98101C13.982 8.86101 13.876 8.70401 13.876 8.54701C13.876 8.39001 13.981 8.23301 14.192 8.11301L17.238 6.37701C17.659 6.13701 18.34 6.13701 18.761 6.37701L21.807 8.11301Z"/>
</svg>
