<svg xmlns="http://www.w3.org/2000/svg" fill="none" viewBox="0 0 36 36" height="36" width="36">
<path fill="#66757F" d="M28.8149 4H30.8109V5H28.8149V4Z"/>
<path fill="#CCD6DD" d="M2 12V32C2 34.209 3.791 36 6 36H30C32.209 36 34 34.209 34 32V12H2Z"/>
<path fill="#DD2E44" d="M30 4H6C3.791 4 2 5.791 2 8V13H34V8C34 5.791 32.209 4 30 4Z"/>
<path fill="#292F33" d="M8.83594 8.73099C8.13394 8.73099 7.56494 8.06499 7.56494 7.24199C7.56494 6.41999 8.13394 5.75299 8.83594 5.75299C9.53694 5.75299 10.1059 6.41999 10.1059 7.24199C10.1059 8.06399 9.53694 8.73099 8.83594 8.73099ZM14.8359 8.73099C14.1339 8.73099 13.5649 8.06499 13.5649 7.24199C13.5649 6.41999 14.1339 5.75299 14.8359 5.75299C15.5369 5.75299 16.1059 6.41999 16.1059 7.24199C16.1059 8.06399 15.5369 8.73099 14.8359 8.73099ZM20.8359 8.73099C20.1339 8.73099 19.5649 8.06499 19.5649 7.24199C19.5649 6.41999 20.1339 5.75299 20.8359 5.75299C21.5369 5.75299 22.1069 6.41999 22.1069 7.24199C22.1059 8.06399 21.5369 8.73099 20.8359 8.73099ZM26.8359 8.73099C26.1339 8.73099 25.5649 8.06499 25.5649 7.24199C25.5649 6.41999 26.1339 5.75299 26.8359 5.75299C27.5369 5.75299 28.1069 6.41999 28.1069 7.24199C28.1059 8.06399 27.5369 8.73099 26.8359 8.73099Z"/>
<path fill="#66757F" d="M27.3149 0.179016C26.0379 0.179016 24.9319 0.981016 24.3209 2.14902C23.7149 1.00602 22.6039 0.179016 21.3149 0.179016C20.0379 0.179016 18.9319 0.981016 18.3209 2.14902C17.7149 1.00602 16.6039 0.179016 15.3149 0.179016C14.0379 0.179016 12.9319 0.981016 12.3209 2.14902C11.7149 1.00602 10.6039 0.179016 9.31494 0.179016C7.38094 0.179016 5.81494 1.99802 5.81494 4.18402C5.81494 6.03802 6.85994 7.55502 8.38394 8.11002C9.14294 8.38502 9.60794 7.66302 9.54294 7.08402C9.48794 6.60402 9.16894 6.29102 8.81394 6.06602C8.32894 5.75902 7.81394 5.05802 7.81394 4.18902C7.81394 3.08502 8.48494 2.09402 9.31394 2.09402C10.1429 2.09402 10.8139 2.99902 10.8139 3.99902H11.8299C11.8269 4.06102 11.8139 4.12002 11.8139 4.18302C11.8139 6.03702 12.8589 7.55402 14.3829 8.10902C15.1419 8.38402 15.6069 7.66202 15.5419 7.08302C15.4869 6.60402 15.1679 6.29102 14.8129 6.06602C14.3279 5.75902 13.8129 5.05802 13.8129 4.18902C13.8129 3.08502 14.4839 2.09402 15.3129 2.09402C16.1419 2.09402 16.8149 3.00002 16.8149 4.00002H17.8309C17.8279 4.06202 17.8149 4.12102 17.8149 4.18402C17.8149 6.03802 18.8599 7.55502 20.3839 8.11002C21.1429 8.38502 21.6079 7.66302 21.5429 7.08402C21.4879 6.60502 21.1689 6.29202 20.8139 6.06702C20.3289 5.76002 19.8139 5.05902 19.8139 4.19002C19.8139 3.08602 20.4849 2.09502 21.3139 2.09502C22.1429 2.09502 22.8149 3.00002 22.8149 4.00002H23.8309C23.8279 4.06202 23.8149 4.12102 23.8149 4.18402C23.8149 6.03802 24.8599 7.55502 26.3839 8.11002C27.1429 8.38502 27.6079 7.66302 27.5429 7.08402C27.4879 6.60502 27.1689 6.29202 26.8139 6.06702C26.3289 5.76002 25.8139 5.05902 25.8139 4.19002C25.8139 3.08602 26.4849 2.09502 27.3139 2.09502C28.1429 2.09502 28.8149 3.00002 28.8149 4.00002H30.8109C30.7899 2.00002 29.2349 0.179016 27.3149 0.179016Z"/>
<path fill="white" d="M11 15H15V19H11V15ZM16 15H20V19H16V15ZM21 15H25V19H21V15ZM26 15H30V19H26V15ZM6 20H10V24H6V20ZM11 20H15V24H11V20ZM16 20H20V24H16V20ZM21 20H25V24H21V20ZM26 20H30V24H26V20ZM6 25H10V29H6V25ZM11 25H15V29H11V25ZM16 25H20V29H16V25ZM21 25H25V29H21V25ZM26 25H30V29H26V25ZM6 30H10V34H6V30ZM11 30H15V34H11V30ZM16 30H20V34H16V30Z"/>
</svg>
