<svg xmlns="http://www.w3.org/2000/svg" fill="none" viewBox="0 0 36 36" height="36" width="36">
<path fill="#31373D" d="M36 23C36 25.209 34.209 27 32 27H4C1.791 27 0 25.209 0 23V13C0 10.791 1.791 9 4 9H32C34.209 9 36 10.791 36 13V23Z"/>
<path fill="#77B255" d="M7 22C9.20914 22 11 20.2091 11 18C11 15.7909 9.20914 14 7 14C4.79086 14 3 15.7909 3 18C3 20.2091 4.79086 22 7 22Z"/>
<path fill="#FFCC4D" d="M18 22C20.2091 22 22 20.2091 22 18C22 15.7909 20.2091 14 18 14C15.7909 14 14 15.7909 14 18C14 20.2091 15.7909 22 18 22Z"/>
<path fill="#DD2E44" d="M29 22C31.2091 22 33 20.2091 33 18C33 15.7909 31.2091 14 29 14C26.7909 14 25 15.7909 25 18C25 20.2091 26.7909 22 29 22Z"/>
</svg>
