<svg xmlns="http://www.w3.org/2000/svg" fill="none" viewBox="0 0 36 36" height="36" width="36">
<path fill="#3E721D" d="M30.001 29C29.653 29 29.316 28.819 29.132 28.496L24.897 21.52C24.623 21.041 24.73 20.441 25.209 20.166L30.167 17.166C30.323 17.077 30.663 17 30.831 17C31.179 17 31.503 17.198 31.687 17.521L34.794 22.643L34.958 24.875C35.232 25.354 34 26.059 33.52 26.333L30.495 28.868C30.34 28.958 30.169 29 30.001 29Z"/>
<path fill="#77B255" d="M23 32C22.447 32 22 31.553 22 31V25C22 24.447 22.447 24 23 24H33C34.85 24 34.55 22.219 34.55 22.219C34.55 22.219 34.877 22.781 34.925 22.87C35.252 23.484 35.469 24.422 34.959 25.375L31.87 31.497C31.725 31.786 31.379 32 31 32H23Z"/>
<path fill="#77B255" d="M22 35C21.74 35 21.484 34.898 21.293 34.707L15.293 28.707C14.902 28.316 14.902 27.684 15.293 27.293L21.293 21.293C21.484 21.102 21.74 21 22 21C22.129 21 22.259 21.024 22.383 21.076C22.757 21.23 23 21.596 23 22V34C23 34.404 22.757 34.77 22.383 34.924C22.259 34.976 22.129 35 22 35Z"/>
<path fill="#3E721D" d="M20.5929 3.29901C20.7509 3.60901 20.7429 3.99101 20.5389 4.30301L16.2459 11.243C15.9429 11.706 15.3599 11.882 14.8979 11.579L9.9739 8.52501C9.8239 8.42601 9.5999 8.15801 9.5239 8.00901C9.3659 7.69901 9.3949 7.32101 9.5989 7.00901L12.7509 1.91501L14.6649 0.756014C14.9679 0.293014 16.1549 1.07101 16.6179 1.37501L20.2489 2.91901C20.4009 3.01801 20.5169 3.15101 20.5929 3.29901Z"/>
<path fill="#77B255" d="M26.4439 8.175C26.6949 8.668 26.5009 9.269 26.0069 9.521L20.6599 12.245C20.1679 12.495 19.5659 12.3 19.3159 11.808L14.7739 2.898C13.9349 1.249 12.4839 2.325 12.4839 2.325C12.4839 2.325 12.8359 1.779 12.8939 1.695C13.2929 1.125 14.0289 0.507 15.1099 0.528L21.9689 0.5C22.2929 0.5 22.6399 0.709 22.8129 1.047L26.4439 8.175Z"/>
<path fill="#77B255" d="M29.5709 7.70502C29.6889 7.93602 29.7139 8.21002 29.6309 8.46702L27.0099 16.538C26.8399 17.063 26.2759 17.35 25.7499 17.18L17.6799 14.557C17.4219 14.474 17.2159 14.292 17.0969 14.061C17.0379 13.947 17.0009 13.819 16.9899 13.685C16.9579 13.281 17.1739 12.899 17.5339 12.716L28.2259 7.26802C28.5859 7.08402 29.0209 7.13402 29.3289 7.39802C29.4319 7.48402 29.5129 7.59002 29.5709 7.70502Z"/>
<path fill="#3E721D" d="M3.37498 24.542C3.55598 24.245 3.88498 24.052 4.25698 24.063L12.418 24.068C12.971 24.085 13.427 24.488 13.413 25.04L13.399 30.835C13.394 31.015 13.283 31.347 13.196 31.489C13.015 31.786 12.677 31.961 12.305 31.95L6.31498 31.942L4.32198 30.923C3.77098 30.906 3.80898 29.488 3.82298 28.937L3.22998 25.033C3.23398 24.854 3.28798 24.685 3.37498 24.542Z"/>
<path fill="#77B255" d="M4.45091 17.002C4.73791 16.53 5.35291 16.38 5.82491 16.667L10.9509 19.786C11.4239 20.073 11.5729 20.687 11.2859 21.16L6.08891 29.703C5.12891 31.283 6.80591 31.953 6.80591 31.953C6.80591 31.953 6.15591 31.939 6.05491 31.933C5.35891 31.895 4.44591 31.592 3.89591 30.662L0.269913 24.842C0.0989125 24.567 0.0959125 24.16 0.292913 23.836L4.45091 17.002Z"/>
<path fill="#77B255" d="M2.40706 14.589C2.54306 14.365 2.76206 14.201 3.02506 14.135L11.2701 12.129C11.8071 11.997 12.3471 12.326 12.4781 12.863L14.4851 21.107C14.5491 21.371 14.5021 21.641 14.3671 21.864C14.3011 21.973 14.2121 22.072 14.1031 22.152C13.7771 22.39 13.3391 22.408 12.9931 22.198L2.74306 15.963C2.39706 15.752 2.21205 15.354 2.27405 14.955C2.29405 14.821 2.34006 14.699 2.40706 14.589Z"/>
</svg>
