<svg xmlns="http://www.w3.org/2000/svg" fill="none" viewBox="0 0 36 36" height="36" width="36">
<path fill="#292F33" d="M31 0H5C2.791 0 1 1.791 1 4V32C1 34.209 2.791 36 5 36H31C33.209 36 35 34.209 35 32V4C35 1.791 33.209 0 31 0Z"/>
<path fill="#292F33" d="M14 11C14 13.209 12.209 15 10 15H9C6.791 15 5 13.209 5 11V9C5 6.791 6.791 5 9 5H10C12.209 5 14 6.791 14 9V11Z"/>
<path fill="#BE1931" d="M22 27C22 28.104 21.104 29 20 29H5C3.896 29 3 28.104 3 27V19C3 17.896 3.896 17 5 17H20C21.104 17 22 17.896 22 19V27ZM33 19C33 17.896 32.104 17 31 17H26C24.896 17 24 17.896 24 19V27C24 28.104 24.896 29 26 29H31C32.104 29 33 28.104 33 27V19ZM16 4C16 2.896 16.896 2 18 2H31C32.104 2 33 2.896 33 4V13C33 14.104 32.104 15 31 15H18C16.896 15 16 14.104 16 13V4ZM14 13C14 14.104 13.104 15 12 15H5C3.896 15 3 14.104 3 13V4C3 2.896 3.896 2 5 2H12C13.104 2 14 2.896 14 4V13Z"/>
<path fill="#DD2E44" d="M14 13C14 14.104 13.104 15 12 15H5C3.896 15 3 14.104 3 13V7C3 5.896 3.896 5 5 5H12C13.104 5 14 5.896 14 7V13ZM33 13C33 14.104 32.104 15 31 15H18C16.896 15 16 14.104 16 13V7C16 5.896 16.896 5 18 5H31C32.104 5 33 5.896 33 7V13Z"/>
<path fill="#E1E8ED" d="M22 27C22 28.104 21.104 29 20 29H5C3.896 29 3 28.104 3 27V22C3 20.896 3.896 20 5 20H20C21.104 20 22 20.896 22 22V27Z"/>
<path fill="#DD2E44" d="M33 27C33 28.104 32.104 29 31 29H26C24.896 29 24 28.104 24 27V22C24 20.896 24.896 20 26 20H31C32.104 20 33 20.896 33 22V27Z"/>
<path fill="#FFAC33" d="M27.015 9.23999C28.33 10.718 28.923 12.338 28.337 12.859L27.278 13.8C26.693 14.322 25.152 13.545 23.838 12.067L20.267 8.05399C18.953 6.57499 18.36 4.95499 18.946 4.43399L20.005 3.49299C20.591 2.97199 22.129 3.74799 23.443 5.22599L27.015 9.23999Z"/>
<path fill="#FFD983" d="M22.28 11.076C21.682 12.615 20.803 13.709 20.319 13.52L19.442 13.179C18.957 12.991 19.049 11.591 19.647 10.053L21.272 5.87499C21.871 4.33699 22.749 3.24299 23.234 3.43099L24.11 3.77199C24.595 3.95999 24.504 5.35999 23.905 6.89799L22.28 11.076Z"/>
<path fill="#FFD983" d="M23.1131 11.536C21.5511 12.071 20.1481 12.104 19.9801 11.612L19.6751 10.721C19.5061 10.229 20.6371 9.397 22.1971 8.863L26.4391 7.413C28.001 6.879 29.4031 6.846 29.5721 7.338L29.876 8.228C30.045 8.721 28.9151 9.553 27.3531 10.086L23.1131 11.536Z"/>
<path fill="#5C913B" d="M6.44194 7.87299C6.81494 3.76699 11.3489 6.91199 13.5769 8.92199C12.2369 10.407 5.99094 12.852 6.44194 7.87299Z"/>
<path fill="#5C913B" d="M6.58394 7.78401C10.3229 6.04701 9.87694 11.547 9.25594 14.482C7.29994 14.068 2.04994 9.89201 6.58394 7.78401Z"/>
<path fill="#77B255" d="M4.99998 8C3.79998 6.4 5.99998 3 11 3C12 4 7.99998 12 4.99998 8Z"/>
<path fill="#B2C2CC" d="M6.00001 27C5.74401 27 5.48801 26.902 5.29301 26.707C4.90201 26.316 4.90201 25.684 5.29301 25.293L6.29301 24.293C6.68401 23.902 7.31601 23.902 7.70701 24.293C8.09801 24.684 8.09801 25.316 7.70701 25.707L6.70701 26.707C6.51201 26.902 6.25601 27 6.00001 27ZM18.417 27.499C18.161 27.499 17.905 27.401 17.71 27.206L16.71 26.206C16.319 25.815 16.319 25.182 16.71 24.792C17.101 24.401 17.734 24.401 18.125 24.792L19.125 25.792C19.516 26.183 19.516 26.815 19.125 27.206C18.929 27.401 18.673 27.499 18.417 27.499ZM12.25 23.208C11.995 23.208 11.739 23.11 11.543 22.916L11.084 22.458C10.693 22.067 10.692 21.435 11.082 21.044C11.471 20.652 12.105 20.652 12.497 21.042L12.956 21.5C13.347 21.891 13.348 22.523 12.958 22.914C12.763 23.11 12.507 23.208 12.25 23.208Z"/>
<path fill="#B26304" d="M32.149 23.412C32.856 24.26 32.741 25.521 31.892 26.228L29.587 28.149C28.739 28.856 27.478 28.741 26.771 27.892L24.85 25.587C24.143 24.739 24.258 23.478 25.107 22.771L27.412 20.85C28.26 20.143 29.521 20.258 30.228 21.107L32.149 23.412Z"/>
<path fill="#F4900C" d="M32.149 21.412C32.856 22.26 32.741 23.521 31.892 24.228L29.587 26.149C28.739 26.856 27.478 26.741 26.771 25.892L24.85 23.587C24.143 22.739 24.258 21.478 25.107 20.771L27.412 18.85C28.26 18.143 29.521 18.258 30.228 19.107L32.149 21.412Z"/>
<path fill="#CCD6DD" d="M12 27C12.5523 27 13 26.5523 13 26C13 25.4477 12.5523 25 12 25C11.4477 25 11 25.4477 11 26C11 26.5523 11.4477 27 12 27Z"/>
<path fill="#CCD6DD" d="M20 23C20.5523 23 21 22.5523 21 22C21 21.4477 20.5523 21 20 21C19.4477 21 19 21.4477 19 22C19 22.5523 19.4477 23 20 23Z"/>
</svg>
