<svg xmlns="http://www.w3.org/2000/svg" fill="none" viewBox="0 0 36 36" height="36" width="36">
<g clip-path="url(#clip0)">
<path fill="#66757F" d="M23 17L24 16C24 16 25 15 26 16L28 18C28 18 29 19 28 20L27 21L23 17Z"/>
<path fill="#8899A6" d="M34.8791 27.879C36.0451 29.045 36.0451 30.955 34.8791 32.121L32.1211 34.879C30.9551 36.045 29.0451 36.045 27.8791 34.879L9.1211 16.121C7.9541 14.955 7.9541 13.045 9.1211 11.879L11.8791 9.12101C13.0461 7.95401 14.9551 7.95401 16.1211 9.12101L34.8791 27.879Z"/>
<path fill="#66757F" d="M20.8791 10.879C22.0451 12.046 22.0451 13.955 20.8791 15.121L15.1211 20.879C13.9541 22.045 12.0451 22.045 10.8791 20.879L6.00011 16C6.00011 16 5.00011 15 6.00011 14L14.0001 6C15.0001 5 16.0001 6 16.0001 6L20.8791 10.879Z"/>
<path fill="#8899A6" d="M7 17L17 7L19 9L9 19L7 17Z"/>
<path fill="#FFCC4D" d="M11.0009 6C10.6339 6 10.2809 5.798 10.1049 5.447L8.10491 1.447C7.85791 0.953001 8.05891 0.353001 8.55291 0.105001C9.04791 -0.142999 9.64791 0.0580011 9.89491 0.552001L11.8949 4.552C12.1419 5.046 11.9419 5.647 11.4479 5.894C11.3039 5.966 11.1509 6 11.0009 6ZM4.99891 12C4.84891 12 4.69591 11.966 4.55291 11.894L0.552908 9.894C0.0589075 9.647 -0.142092 9.047 0.104908 8.553C0.351908 8.059 0.951908 7.858 1.44691 8.106L5.44691 10.106C5.94091 10.353 6.14091 10.954 5.89391 11.448C5.71891 11.798 5.36591 12 4.99891 12ZM7.99991 9C7.74391 9 7.48791 8.902 7.29291 8.707L3.29291 4.707C2.90191 4.316 2.90191 3.684 3.29291 3.293C3.68391 2.902 4.31591 2.902 4.70691 3.293L8.70691 7.293C9.09791 7.684 9.09791 8.316 8.70691 8.707C8.51191 8.902 8.25591 9 7.99991 9Z"/>
</g>
<defs>
<clipPath id="clip0">
<rect fill="white" height="36" width="36"/>
</clipPath>
</defs>
</svg>
