<svg xmlns="http://www.w3.org/2000/svg" fill="none" viewBox="0 0 36 36" height="36" width="36">
<path fill="#F4900C" d="M13.917 36C13.826 36 13.735 35.971 13.659 35.911C13.502 35.787 13.455 35.57 13.546 35.393L17 29H11.922C11.748 29 11.484 28.969 11.36 28.703C11.246 28.46 11.303 28.229 11.407 28L15 19C15.078 18.933 21.902 19.393 22 19.393C22.09 19.393 22.182 19.422 22.257 19.482C22.414 19.606 22.461 19.823 22.369 20.001L18.552 26.001H23.584C23.758 26.001 23.913 26.109 23.975 26.272C24.035 26.435 23.988 26.619 23.856 26.733L14.19 35.899C14.111 35.966 14.014 36 13.917 36Z"/>
<path fill="#E1E8ED" d="M28 4C27.175 4 26.38 4.125 25.631 4.357C24.744 1.822 22.338 0 19.5 0C16.456 0 13.908 2.096 13.201 4.921C12.447 4.351 11.519 4 10.5 4C8.015 4 6 6.015 6 8.5C6 9.104 6.123 9.678 6.339 10.204C5.91 10.085 5.467 10 5 10C2.238 10 0 12.238 0 15C0 17.762 2.238 20 5 20H28C32.418 20 36 16.419 36 12C36 7.582 32.418 4 28 4Z"/>
</svg>
