<svg xmlns="http://www.w3.org/2000/svg" fill="none" viewBox="0 0 36 36" height="36" width="36">
<path fill="#D99E82" d="M36 32C36 34.209 34.209 36 32 36H4C1.791 36 0 34.209 0 32V23C0 20.791 0.791 20 3 20H33C35.209 20 36 20.791 36 23V32Z"/>
<path fill="#662113" d="M25 20C25 23.866 21.866 27 18 27C14.134 27 11 23.866 11 20H25Z"/>
<path fill="#C1694F" d="M4 36H32C34.209 36 36 34.209 36 32H0C0 34.209 1.791 36 4 36Z"/>
<path fill="#77B255" d="M26.7159 8H21.9329V2C21.9329 0.895 21.0369 0 19.9329 0H15.9319C14.8279 0 13.9329 0.896 13.9329 2V8H9.14794C7.92494 8 7.63194 8.623 8.49694 9.489L16.3599 17.352C17.2249 18.217 18.6399 18.217 19.5059 17.352L27.3689 9.489C28.2319 8.623 27.9399 8 26.7159 8Z"/>
</svg>
