<svg xmlns="http://www.w3.org/2000/svg" fill="none" viewBox="0 0 36 36" height="36" width="36">
<path fill="#FFAC33" d="M34.347 16.893L25.448 13.599L22.125 2.708C21.997 2.288 21.608 2 21.169 2C20.73 2 20.341 2.288 20.213 2.708L16.891 13.599L7.99101 16.893C7.59801 17.039 7.33801 17.412 7.33801 17.831C7.33801 18.249 7.59801 18.624 7.99101 18.769L16.886 22.062L20.21 33.285C20.336 33.709 20.726 34 21.169 34C21.611 34 22.002 33.709 22.128 33.284L25.452 22.061L34.348 18.768C34.739 18.624 35 18.25 35 17.831C35 17.413 34.739 17.039 34.347 16.893Z"/>
<path fill="#FFCC4D" d="M14.347 27.894L12.033 27.038L11.133 23.738C11.015 23.302 10.62 23 10.169 23C9.718 23 9.323 23.302 9.204 23.737L8.304 27.037L5.991 27.893C5.598 28.038 5.338 28.413 5.338 28.831C5.338 29.249 5.598 29.624 5.991 29.769L8.292 30.622L9.199 34.244C9.311 34.688 9.71 35 10.169 35C10.628 35 11.027 34.688 11.139 34.243L12.046 30.621L14.347 29.768C14.74 29.624 15 29.249 15 28.831C15 28.413 14.74 28.038 14.347 27.894ZM10.009 6.23101L7.645 5.35601L6.769 2.99101C6.624 2.59801 6.25 2.33801 5.831 2.33801C5.413 2.33801 5.039 2.59801 4.893 2.99101L4.018 5.35601L1.653 6.23101C1.26 6.37701 1 6.75101 1 7.16901C1 7.58701 1.26 7.96201 1.653 8.10701L4.018 8.98201L4.893 11.347C5.039 11.74 5.413 12 5.831 12C6.249 12 6.623 11.74 6.769 11.347L7.644 8.98201L10.009 8.10701C10.402 7.96101 10.662 7.58701 10.662 7.16901C10.662 6.75101 10.402 6.37701 10.009 6.23101Z"/>
</svg>
