<svg xmlns="http://www.w3.org/2000/svg" fill="none" viewBox="0 0 36 36" height="36" width="36">
<path fill="#99AAB5" d="M4.16708 32.729C4.45908 32.896 4.79308 33 5.15408 33C6.25908 33 7.15408 32.104 7.15408 31C7.15408 29.896 6.25908 29 5.15408 29C4.04908 29 3.15408 29.896 3.15408 31C3.15408 31.361 3.25708 31.695 3.42408 31.987L0.278076 35.133L1.15408 28L10.1541 21L15.1541 26L8.15408 35L1.02008 35.876L4.16708 32.729Z"/>
<path fill="#66757F" d="M22.511 5.30796C21.36 6.45896 21.36 8.32396 22.511 9.47496L26.678 13.643C27.829 14.793 29.696 14.793 30.845 13.643L35.012 9.47496C36.162 8.32396 36.162 6.45896 35.012 5.30796L30.845 1.14096C29.695 -0.01004 27.829 -0.01004 26.678 1.14096L22.511 5.30796Z"/>
<path fill="#31373D" d="M9.51096 18.309L26.713 1.10498L35.046 9.43998L17.845 26.643C16.695 27.793 14.829 27.793 13.677 26.643L9.51096 22.475C8.35996 21.324 8.35996 19.459 9.51096 18.309Z"/>
<path fill="#66757F" d="M17.469 10.35L19.594 8.22498L27.928 16.559L25.803 18.684L17.469 10.35Z"/>
</svg>
