<svg xmlns="http://www.w3.org/2000/svg" fill="none" viewBox="0 0 36 36" height="36" width="36">
<path fill="#DD2E44" d="M35.885 11.833C35.885 6.383 31.467 1.965 26.018 1.965C22.71 1.965 19.791 3.598 18 6.094C16.209 3.598 13.29 1.965 9.98299 1.965C4.53299 1.965 0.11499 6.382 0.11499 11.833C0.11499 12.605 0.21299 13.353 0.38099 14.074C1.75099 22.587 11.216 31.568 18 34.034C24.783 31.568 34.249 22.587 35.617 14.075C35.787 13.354 35.885 12.606 35.885 11.833Z"/>
<path fill="#FDD888" d="M36 15C35 20 32 23 32 23H4C4 23 1 20 0 15H36Z"/>
<path fill="#FDD888" d="M14 18V36L9 31L4 36V18H14Z"/>
<path fill="#FDCB58" d="M16.802 9.194L8.923 14.709L1.045 9.194C0.47 8.792 0 9.036 0 9.738V24.396C0 25.099 0.48 25.361 1.069 24.978L8.923 19.872L16.777 24.978C17.365 25.361 17.846 25.099 17.846 24.396V9.738C17.847 9.036 17.376 8.792 16.802 9.194Z"/>
<path fill="#FDD888" d="M9 21C11.2091 21 13 19.2091 13 17C13 14.7909 11.2091 13 9 13C6.79086 13 5 14.7909 5 17C5 19.2091 6.79086 21 9 21Z"/>
</svg>
