<svg xmlns="http://www.w3.org/2000/svg" fill="none" viewBox="0 0 36 36" height="36" width="36">
<path fill="#31373D" d="M2.12995 14.856L2.12595 14.854C2.12595 14.854 0.0749512 27.271 0.0749512 29.061C0.0749512 30.885 1.41795 32.363 3.07495 32.363C3.75495 32.363 4.37495 32.105 4.87795 31.685L15.044 22.747L2.12995 14.856ZM33.82 14.856L33.824 14.854C33.824 14.854 35.875 27.271 35.875 29.061C35.875 30.885 34.532 32.363 32.875 32.363C32.195 32.363 31.575 32.105 31.072 31.685L20.906 22.747L33.82 14.856Z"/>
<path fill="#14171A" d="M25.975 24.051C30.6694 24.051 34.475 20.2454 34.475 15.551C34.475 10.8566 30.6694 7.05103 25.975 7.05103C21.2806 7.05103 17.475 10.8566 17.475 15.551C17.475 20.2454 21.2806 24.051 25.975 24.051Z"/>
<path fill="#14171A" d="M9.97498 24.051C14.6694 24.051 18.475 20.2454 18.475 15.551C18.475 10.8566 14.6694 7.05103 9.97498 7.05103C5.28056 7.05103 1.47498 10.8566 1.47498 15.551C1.47498 20.2454 5.28056 24.051 9.97498 24.051Z"/>
<path fill="#14171A" d="M9.97498 7.05103H25.975V23.921H9.97498V7.05103Z"/>
<path fill="#14171A" d="M13.075 28.301C15.8364 28.301 18.075 26.0624 18.075 23.301C18.075 20.5396 15.8364 18.301 13.075 18.301C10.3135 18.301 8.07495 20.5396 8.07495 23.301C8.07495 26.0624 10.3135 28.301 13.075 28.301Z"/>
<path fill="#14171A" d="M22.875 28.301C25.6364 28.301 27.875 26.0624 27.875 23.301C27.875 20.5396 25.6364 18.301 22.875 18.301C20.1136 18.301 17.875 20.5396 17.875 23.301C17.875 26.0624 20.1136 28.301 22.875 28.301Z"/>
<path fill="#67757F" d="M22.875 26.301C24.5319 26.301 25.875 24.9579 25.875 23.301C25.875 21.6442 24.5319 20.301 22.875 20.301C21.2181 20.301 19.875 21.6442 19.875 23.301C19.875 24.9579 21.2181 26.301 22.875 26.301Z"/>
<path fill="#67757F" d="M13.075 26.301C14.7318 26.301 16.075 24.9579 16.075 23.301C16.075 21.6442 14.7318 20.301 13.075 20.301C11.4181 20.301 10.075 21.6442 10.075 23.301C10.075 24.9579 11.4181 26.301 13.075 26.301Z"/>
<path fill="#FFCC4D" d="M25.735 12.736C26.6203 12.736 27.338 12.0183 27.338 11.133C27.338 10.2477 26.6203 9.53003 25.735 9.53003C24.8496 9.53003 24.132 10.2477 24.132 11.133C24.132 12.0183 24.8496 12.736 25.735 12.736Z"/>
<path fill="#77B255" d="M25.735 19.21C26.6203 19.21 27.338 18.4923 27.338 17.607C27.338 16.7217 26.6203 16.004 25.735 16.004C24.8496 16.004 24.132 16.7217 24.132 17.607C24.132 18.4923 24.8496 19.21 25.735 19.21Z"/>
<path fill="#50A5E6" d="M22.498 15.973C23.3833 15.973 24.101 15.2553 24.101 14.37C24.101 13.4847 23.3833 12.767 22.498 12.767C21.6127 12.767 20.895 13.4847 20.895 14.37C20.895 15.2553 21.6127 15.973 22.498 15.973Z"/>
<path fill="#DD2E44" d="M28.972 15.973C29.8573 15.973 30.575 15.2553 30.575 14.37C30.575 13.4847 29.8573 12.767 28.972 12.767C28.0867 12.767 27.369 13.4847 27.369 14.37C27.369 15.2553 28.0867 15.973 28.972 15.973Z"/>
<path fill="#8899A6" d="M11.148 12.514V10.346C11.148 10.067 10.922 9.841 10.643 9.841H9.085C8.806 9.841 8.58 10.067 8.58 10.346V12.514L9.864 13.799L11.148 12.514ZM8.579 16.144V18.312C8.579 18.591 8.805 18.817 9.084 18.817H10.642C10.921 18.817 11.147 18.591 11.147 18.312V16.144L9.863 14.859L8.579 16.144ZM13.848 13.044H11.68L10.395 14.329L11.68 15.614H13.848C14.127 15.614 14.353 15.387 14.353 15.109V13.55C14.353 13.271 14.127 13.044 13.848 13.044ZM8.049 13.044H5.88C5.601 13.044 5.375 13.271 5.375 13.549V15.107C5.375 15.386 5.601 15.612 5.88 15.612H8.048L9.333 14.327L8.049 13.044Z"/>
</svg>
