<svg xmlns="http://www.w3.org/2000/svg" fill="none" viewBox="0 0 36 36" height="36" width="36">
<path fill="#99AAB5" d="M36 28C36 29.104 35.104 30 34 30H2C0.896 30 0 29.104 0 28V12C0 10.896 0.896 10 2 10H34C35.104 10 36 10.896 36 12V28Z"/>
<path fill="#292F33" d="M5.5 19C5.5 19.553 5.052 20 4.5 20H3.5C2.948 20 2.5 19.553 2.5 19V18C2.5 17.447 2.948 17 3.5 17H4.5C5.052 17 5.5 17.447 5.5 18V19ZM9.5 19C9.5 19.553 9.052 20 8.5 20H7.5C6.948 20 6.5 19.553 6.5 19V18C6.5 17.447 6.948 17 7.5 17H8.5C9.052 17 9.5 17.447 9.5 18V19ZM13.5 19C13.5 19.553 13.052 20 12.5 20H11.5C10.948 20 10.5 19.553 10.5 19V18C10.5 17.447 10.948 17 11.5 17H12.5C13.052 17 13.5 17.447 13.5 18V19ZM17.5 19C17.5 19.553 17.052 20 16.5 20H15.5C14.948 20 14.5 19.553 14.5 19V18C14.5 17.447 14.948 17 15.5 17H16.5C17.052 17 17.5 17.447 17.5 18V19ZM21.5 19C21.5 19.553 21.053 20 20.5 20H19.5C18.947 20 18.5 19.553 18.5 19V18C18.5 17.447 18.947 17 19.5 17H20.5C21.053 17 21.5 17.447 21.5 18V19ZM25.5 19C25.5 19.553 25.053 20 24.5 20H23.5C22.947 20 22.5 19.553 22.5 19V18C22.5 17.447 22.947 17 23.5 17H24.5C25.053 17 25.5 17.447 25.5 18V19ZM29.5 19C29.5 19.553 29.053 20 28.5 20H27.5C26.947 20 26.5 19.553 26.5 19V18C26.5 17.447 26.947 17 27.5 17H28.5C29.053 17 29.5 17.447 29.5 18V19ZM33.5 19C33.5 19.553 33.053 20 32.5 20H31.5C30.947 20 30.5 19.553 30.5 19V18C30.5 17.447 30.947 17 31.5 17H32.5C33.053 17 33.5 17.447 33.5 18V19ZM7.5 23C7.5 23.553 7.052 24 6.5 24H5.5C4.948 24 4.5 23.553 4.5 23V22C4.5 21.447 4.948 21 5.5 21H6.5C7.052 21 7.5 21.447 7.5 22V23ZM11.5 23C11.5 23.553 11.052 24 10.5 24H9.5C8.948 24 8.5 23.553 8.5 23V22C8.5 21.447 8.948 21 9.5 21H10.5C11.052 21 11.5 21.447 11.5 22V23ZM15.5 23C15.5 23.553 15.052 24 14.5 24H13.5C12.948 24 12.5 23.553 12.5 23V22C12.5 21.447 12.948 21 13.5 21H14.5C15.052 21 15.5 21.447 15.5 22V23ZM19.5 23C19.5 23.553 19.053 24 18.5 24H17.5C16.948 24 16.5 23.553 16.5 23V22C16.5 21.447 16.948 21 17.5 21H18.5C19.053 21 19.5 21.447 19.5 22V23ZM23.5 23C23.5 23.553 23.053 24 22.5 24H21.5C20.947 24 20.5 23.553 20.5 23V22C20.5 21.447 20.947 21 21.5 21H22.5C23.053 21 23.5 21.447 23.5 22V23ZM27.5 23C27.5 23.553 27.053 24 26.5 24H25.5C24.947 24 24.5 23.553 24.5 23V22C24.5 21.447 24.947 21 25.5 21H26.5C27.053 21 27.5 21.447 27.5 22V23ZM31.5 23C31.5 23.553 31.053 24 30.5 24H29.5C28.947 24 28.5 23.553 28.5 23V22C28.5 21.447 28.947 21 29.5 21H30.5C31.053 21 31.5 21.447 31.5 22V23ZM10 27C10 27.553 9.552 28 9 28H7C6.448 28 6 27.553 6 27V26C6 25.447 6.448 25 7 25H9C9.552 25 10 25.447 10 26V27ZM30 27C30 27.553 29.553 28 29 28H27C26.447 28 26 27.553 26 27V26C26 25.447 26.447 25 27 25H29C29.553 25 30 25.447 30 26V27ZM25 27C25 27.553 24.553 28 24 28H12C11.448 28 11 27.553 11 27V26C11 25.447 11.448 25 12 25H24C24.553 25 25 25.447 25 26V27ZM5.5 13.083C5.5 13.635 5.052 14.083 4.5 14.083H3.5C2.948 14.083 2.5 13.635 2.5 13.083C2.5 12.531 2.948 12.083 3.5 12.083H4.5C5.052 12.083 5.5 12.531 5.5 13.083ZM9.5 13.083C9.5 13.635 9.052 14.083 8.5 14.083H7.5C6.948 14.083 6.5 13.635 6.5 13.083C6.5 12.531 6.948 12.083 7.5 12.083H8.5C9.052 12.083 9.5 12.531 9.5 13.083ZM13.5 13.083C13.5 13.635 13.052 14.083 12.5 14.083H11.5C10.948 14.083 10.5 13.635 10.5 13.083C10.5 12.531 10.948 12.083 11.5 12.083H12.5C13.052 12.083 13.5 12.531 13.5 13.083ZM17.5 13.083C17.5 13.635 17.052 14.083 16.5 14.083H15.5C14.948 14.083 14.5 13.635 14.5 13.083C14.5 12.531 14.948 12.083 15.5 12.083H16.5C17.052 12.083 17.5 12.531 17.5 13.083ZM21.5 13.083C21.5 13.635 21.053 14.083 20.5 14.083H19.5C18.947 14.083 18.5 13.635 18.5 13.083C18.5 12.531 18.947 12.083 19.5 12.083H20.5C21.053 12.083 21.5 12.531 21.5 13.083ZM25.5 13.083C25.5 13.635 25.053 14.083 24.5 14.083H23.5C22.947 14.083 22.5 13.635 22.5 13.083C22.5 12.531 22.947 12.083 23.5 12.083H24.5C25.053 12.083 25.5 12.531 25.5 13.083ZM29.5 13.083C29.5 13.635 29.053 14.083 28.5 14.083H27.5C26.947 14.083 26.5 13.635 26.5 13.083C26.5 12.531 26.947 12.083 27.5 12.083H28.5C29.053 12.083 29.5 12.531 29.5 13.083ZM33.5 13.083C33.5 13.635 33.053 14.083 32.5 14.083H31.5C30.947 14.083 30.5 13.635 30.5 13.083C30.5 12.531 30.947 12.083 31.5 12.083H32.5C33.053 12.083 33.5 12.531 33.5 13.083Z"/>
</svg>
