<svg xmlns="http://www.w3.org/2000/svg" fill="none" viewBox="0 0 36 36" height="36" width="36">
<path fill="#99AAB5" d="M20 2.047V2C20 0.896 19.104 0 18 0C16.896 0 16 0.896 16 2V2.047C7.737 2.422 6 5.127 6 7V24C6 30.627 11.373 36 18 36C24.627 36 30 30.627 30 24V7C30 5.127 28.263 2.422 20 2.047Z"/>
<path fill="#292F33" d="M22 9.199V2.199C21.378 2.133 20.712 2.083 20 2.048V9C20 10.104 19.104 11 18 11C16.896 11 16 10.104 16 9V2.048C15.288 2.082 14.622 2.133 14 2.199V9.199C7.459 9.89 6 12.29 6 14V16C6 14.275 7.482 11.847 14.169 11.181C14.646 12.228 16.171 13 18 13C19.83 13 21.355 12.228 21.831 11.181C28.518 11.847 30 14.275 30 16V14C30 12.29 28.541 9.89 22 9.199Z"/>
</svg>
