<svg xmlns="http://www.w3.org/2000/svg" fill="none" viewBox="0 0 36 36" height="36" width="36">
<path fill="#FDD888" d="M33 31C33 33.2 31.2 35 29 35H7C4.8 35 3 33.2 3 31V14C3 11.8 4.8 10 7 10H29C31.2 10 33 11.8 33 14V31Z"/>
<path fill="#FDD888" d="M36 11C36 13.2 34.2 15 32 15H4C1.8 15 0 13.2 0 11C0 8.8 1.8 7 4 7H32C34.2 7 36 8.8 36 11Z"/>
<path fill="#FCAB40" d="M3 15H33V17H3V15Z"/>
<path fill="#DA2F47" d="M19 3H17C15.343 3 14 4.343 14 6V35H22V6C22 4.344 20.657 3 19 3Z"/>
<path fill="#DA2F47" d="M16.0001 7.00001C17.1001 7.00001 17.2631 6.48401 16.3611 5.85301L9.63911 1.14701C8.73711 0.516009 7.55411 0.781009 7.00811 1.73601L4.99211 5.26401C4.44611 6.21901 4.90011 7.00001 6.00011 7.00001H16.0001ZM20.0001 7.00001C18.9001 7.00001 18.7371 6.48401 19.6391 5.85301L26.3621 1.14701C27.2631 0.516009 28.4471 0.781009 28.9931 1.73601L31.0091 5.26301C31.5541 6.21901 31.1001 7.00001 30.0001 7.00001H20.0001Z"/>
</svg>
